<svg width="1440" height="339" viewBox="0 0 1440 339" fill="none" xmlns="http://www.w3.org/2000/svg">
<g clip-path="url(#clip0_1_203)">
<rect width="1440" height="339" fill="#FAFAFA"/>
<rect width="1440" height="77" transform="translate(0 262)" fill="#252B42"/>
<g clip-path="url(#clip1_1_203)">
<g clip-path="url(#clip2_1_203)">
<g clip-path="url(#clip3_1_203)">
<path d="M243.255 102.425L249.419 102.553C247.295 101.818 245.235 100.924 243.255 99.8709V102.425ZM252.542 101.579V102.425L249.419 102.553C255.294 104.548 260.669 104.819 264.66 103.702C261.457 103.734 257.289 103.287 252.542 101.579ZM318.349 83.1901C320.908 83.1901 323 81.131 323 78.577C323 76.023 320.924 74.6662 318.349 74.6662C315.79 74.6662 313.698 76.039 313.698 78.577C313.698 81.115 315.774 83.1901 318.349 83.1901ZM313.682 102.425H323V84.7864H313.682V102.425ZM301.821 102.425H311.139V71.2502L301.821 75.608V102.425ZM296.831 83.3657C293.902 80.4606 288.72 80.6362 288.72 80.6362C288.72 80.6362 283.522 80.4606 280.609 83.3657C277.68 86.2709 277.905 88.777 277.905 91.762C277.905 94.747 277.68 97.2371 280.609 100.142C283.538 103.047 288.72 102.872 288.72 102.872C288.72 102.872 293.919 103.047 296.831 100.142C299.761 97.2371 299.535 94.747 299.535 91.762C299.519 88.761 299.744 86.2549 296.831 83.3657ZM290.426 94.8427C290.426 95.4174 290.136 96.838 288.704 96.838C287.272 96.838 286.982 95.4174 286.982 94.8427V88.3939C286.982 87.0052 288.157 86.654 288.704 86.654C289.251 86.654 290.426 86.9892 290.426 88.3939V94.8427ZM273.335 83.3657C270.406 80.4606 265.223 80.6362 265.223 80.6362C265.223 80.6362 260.041 80.4606 257.112 83.3657C256.806 83.669 256.517 83.9883 256.259 84.3235C250.111 79.5986 244.591 76.9009 239.827 74.5704V71.2662L236.206 72.9582C227.451 69.4305 221.883 70.0531 220.547 72.9742C220.547 72.9742 216.54 78.2099 230.493 90.6606V102.425H239.811V97.8596C238.765 97.1892 237.719 96.4709 236.689 95.6887C234.307 93.9009 232.279 92.2409 230.509 90.6765V85.7282C232.617 88.0747 235.418 90.7404 239.103 93.7573L239.827 94.3319V89.5751C239.827 88.4737 240.101 86.67 241.566 86.67C243.03 86.67 243.272 87.7714 243.272 89.0643V96.838C246.168 98.7855 249.274 100.366 252.558 101.563V86.5742C252.558 83.5892 250.401 80.6042 246.024 80.6042C243.481 80.5883 241.115 81.9132 239.827 84.1V75.4324C246.571 78.7685 253.33 82.8549 255.905 84.7385C254.264 87.069 254.408 89.2239 254.408 91.7141C254.408 94.6991 254.183 97.1892 257.112 100.094C260.041 103 265.223 102.824 265.223 102.824C265.223 102.824 270.422 103 273.335 100.094C276.264 97.1892 276.022 94.6991 276.022 91.7141C276.022 88.761 276.264 86.2549 273.335 83.3657ZM230.493 75.608V85.7122C222.655 77.0127 224.233 73.5808 224.828 73.0859C227.001 71.2662 230.863 71.8089 235.192 73.4211L230.493 75.608ZM266.945 94.8427C266.945 95.4174 266.656 96.838 265.223 96.838C263.791 96.838 263.501 95.4174 263.501 94.8427V88.3939C263.501 87.0052 264.676 86.654 265.223 86.654C265.771 86.654 266.945 86.9892 266.945 88.3939V94.8427Z" fill="#737373"/>
</g>
</g>
<g clip-path="url(#clip4_1_203)">
<path d="M409.5 58.9953H422.112V93.0099C422.112 98.4047 424.544 101.615 426.521 102.952C424.463 104.761 418.221 106.358 413.52 102.496C410.764 100.214 409.5 96.4163 409.5 92.8795V58.9953ZM488.269 87.2729V83.6873H492.127V71.1702H487.896C486.259 63.624 479.596 58.0174 471.637 58.0174C462.461 58.0174 454.988 65.5146 454.988 74.7558V103.962C457.582 104.337 460.727 103.914 463.369 101.681C466.141 99.3989 467.389 95.6177 467.389 92.0646V90.9726H473.679V78.4555H467.389V74.658C467.389 69.0188 475.851 69.0188 475.851 74.658V87.224C475.851 96.4489 483.308 103.962 492.5 103.962V91.4942C490.149 91.4942 488.269 89.5873 488.269 87.2729ZM440.56 71.1376V89.5547C440.56 92.0646 436.702 92.0646 436.702 89.5547V71.1376H424.252V92.7655C424.252 96.6445 425.549 101.567 431.547 103.18C437.545 104.777 440.982 101.452 440.982 101.452C440.641 103.636 438.631 105.25 435.324 105.576C432.811 105.837 429.618 104.989 428.029 104.305V115.762C432.098 116.985 436.378 117.36 440.609 116.528C448.244 115.045 453.059 108.64 453.059 100.1V71.0561H440.56V71.1376Z" fill="#737373"/>
</g>
<g clip-path="url(#clip5_1_203)">
<path d="M681 50.1458C668.122 58.8283 666.752 65.1296 665.636 67.0573C664.568 69.0335 663.772 76.8251 661.923 80.5994C660.058 84.4223 653.285 87.4352 651.388 88.6987C649.523 89.9622 646.878 94.8704 644.71 99.0983C627.482 98.3856 618.031 105.383 603.4 114.26C608.086 112.689 610.301 111.555 610.301 111.555C625.314 105.724 632.502 100.491 655.102 103.585C655.277 103.585 655.404 103.683 655.548 103.715C656.169 104.071 656.392 104.833 656.042 105.464L647.452 120.983C647.053 121.744 646.208 122.149 645.364 121.971C625.155 118.116 609.202 124.773 594.539 124.984C582.841 125.162 579 119.557 579 119.298C579 119.12 579.096 119.023 579.271 119.023C579.271 119.023 585.375 119.023 595.702 116.544C607.432 93.8175 617.887 85.864 629.267 85.864C629.267 85.864 640.694 85.864 643.706 95.8909C647.34 89.4601 648.217 87.9212 648.217 87.9212C649.061 86.3985 653.795 75.4158 661.987 65.0162C670.194 54.6491 676.394 52.0735 681 50.1458Z" fill="#737373"/>
</g>
<g clip-path="url(#clip6_1_203)">
<g clip-path="url(#clip7_1_203)">
<path d="M786.555 69.7932L779.587 71.2568L779.555 93.9114C779.555 98.0955 782.741 100.8 786.974 100.8C789.324 100.8 791.046 100.37 791.995 99.8614V94.4841C791.078 94.85 786.572 96.1546 786.572 91.9864V81.9318H791.995V75.9182H786.572L786.555 69.7932ZM800.895 78.0023L800.46 75.9182H794.28V100.291H801.41V83.8886C803.1 81.6932 805.948 82.1227 806.866 82.4091V75.9182C805.9 75.5841 802.569 74.9636 800.895 78.0023ZM815.75 66.5L808.572 68.0114V73.7705L815.75 72.2591V66.5ZM767.227 83.0932C767.227 81.9955 768.16 81.5659 769.657 81.55C771.83 81.55 774.598 82.2023 776.77 83.3636V76.7136C774.405 75.7909 772.039 75.425 769.673 75.425C763.879 75.425 760.017 78.4159 760.017 83.4114C760.017 91.2386 770.88 89.9659 770.88 93.3386C770.88 94.6432 769.738 95.0727 768.144 95.0727C765.778 95.0727 762.721 94.1023 760.323 92.8136V99.1773C762.978 100.307 765.666 100.784 768.128 100.784C774.067 100.784 778.155 98.2705 778.155 93.1796C778.155 84.7636 767.227 86.275 767.227 83.0932ZM863.001 88.3909C863.001 81.1523 859.46 75.4409 852.669 75.4409C845.877 75.4409 841.741 81.1523 841.741 88.3432C841.741 96.8545 846.617 100.784 853.57 100.784C856.982 100.784 859.541 100.02 861.488 98.9545V93.6409C859.541 94.6114 857.304 95.2 854.471 95.2C851.687 95.2 849.241 94.2295 848.919 90.9205H862.904C862.936 90.5545 863.001 89.075 863.001 88.3909ZM848.854 85.7182C848.854 82.5364 850.834 81.2 852.62 81.2C854.375 81.2 856.241 82.5364 856.241 85.7182H848.854ZM830.685 75.4409C827.884 75.4409 826.082 76.7455 825.084 77.6523L824.714 75.9023H818.421V108.484L825.567 106.989L825.583 99.0023C826.613 99.75 828.142 100.784 830.636 100.784C835.754 100.784 840.421 97.0932 840.421 88.1205C840.437 79.9114 835.706 75.4409 830.685 75.4409ZM828.979 94.9296C827.305 94.9296 826.307 94.325 825.615 93.5932L825.567 83.0932C826.307 82.2818 827.337 81.6932 828.979 81.6932C831.586 81.6932 833.388 84.5886 833.388 88.2795C833.404 92.0818 831.634 94.9296 828.979 94.9296ZM808.588 100.291H815.766V75.9182H808.588V100.291Z" fill="#737373"/>
</g>
</g>
<g clip-path="url(#clip8_1_203)">
<g clip-path="url(#clip9_1_203)">
<path d="M969.887 78.9886C969.771 82.6267 971.604 84.2378 971.65 85.2609C971.628 85.4692 971.556 85.6693 971.441 85.8445C971.325 86.0197 971.169 86.1649 970.985 86.268L968.912 87.7072C968.644 87.8937 968.327 88.0007 968 88.0156C967.93 88.0124 966.673 88.3095 964.682 83.9021C963.468 85.4054 961.922 86.6133 960.164 87.4332C958.406 88.2531 956.482 88.6633 954.54 88.6324C951.903 88.7753 944.755 87.1482 945.123 79.6038C944.866 73.4552 950.641 69.6356 956.613 69.9585C957.764 69.9617 960.112 70.0179 964.225 70.9656V68.4567C964.661 64.2066 961.844 60.9091 956.967 61.4038C956.578 61.4054 953.824 61.3235 949.541 63.0277C948.348 63.5706 948.196 63.4806 947.799 63.4806C946.599 63.4806 947.093 60.0305 947.323 59.5936C948.167 58.5656 953.132 56.6461 958.005 56.6735C961.263 56.3878 964.504 57.3848 967.026 59.449C968.052 60.5863 968.834 61.918 969.326 63.3634C969.818 64.8089 970.009 66.3383 969.889 67.8592L969.887 78.9886ZM955.888 84.1912C961.141 84.1157 963.365 80.9836 963.872 79.297C964.271 77.6828 964.204 76.6612 964.204 74.896C962.638 74.5234 960.383 74.117 957.796 74.1138C955.342 73.9307 950.859 75.0181 951.034 79.2954C950.833 81.9923 952.836 84.3389 955.888 84.1912ZM983.576 87.8935C982.302 88.0092 981.709 87.1129 981.522 86.2279L973.454 59.7815C973.297 59.335 973.193 58.874 973.143 58.4034C973.113 58.2093 973.163 58.0115 973.28 57.8534C973.397 57.6953 973.573 57.5898 973.769 57.5601C973.807 57.5537 973.423 57.5601 977.373 57.5601C978.795 57.4187 979.258 58.5286 979.406 59.2257L985.192 81.8461L990.564 59.2257C990.65 58.7085 991.04 57.4477 992.638 57.581H995.417C995.769 57.5521 997.217 57.5007 997.471 59.2466L1002.89 82.1561L1008.86 59.2466C1008.94 58.8965 1009.3 57.4203 1010.91 57.581H1014.11C1014.24 57.5601 1015.1 57.4509 1014.96 58.9591C1014.89 59.2563 1015.51 57.2469 1006.41 86.2487C1006.23 87.1338 1005.63 88.03 1004.36 87.9144H1001.33C999.558 88.0991 999.304 86.3628 999.276 86.1877L993.904 64.1616L988.594 86.1652C988.568 86.3403 988.314 88.0766 986.54 87.8919H983.576V87.8935ZM1027.88 88.7978C1026.93 88.7994 1022.38 88.7496 1018.59 86.8238C1018.21 86.665 1017.89 86.3984 1017.66 86.0578C1017.43 85.7172 1017.32 85.318 1017.32 84.9108V83.1841C1017.32 81.8268 1018.32 82.0758 1018.75 82.238C1020.38 82.8901 1021.42 83.3849 1023.42 83.78C1029.36 84.9895 1031.97 83.4106 1032.61 83.0604C1034.74 81.8059 1034.9 78.9356 1033.46 77.4467C1031.76 76.0348 1030.95 75.9818 1024.85 74.0736C1024.1 73.8664 1017.77 71.8875 1017.76 65.6635C1017.66 61.1275 1021.81 56.6397 1029.02 56.6767C1031.07 56.6751 1036.54 57.34 1038.02 59.1856C1038.24 59.5213 1038.35 59.9164 1038.33 60.3164V61.9402C1038.33 62.6534 1038.07 63.01 1037.54 63.01C1036.29 62.8718 1034.08 61.2158 1029.58 61.2833C1028.46 61.2255 1023.12 61.4295 1023.36 65.294C1023.29 68.3394 1027.67 69.4814 1028.17 69.6131C1034.07 71.3752 1036.05 71.6675 1038.39 74.3643C1041.17 77.9382 1039.67 82.1224 1039.1 83.2692C1036.01 89.2909 1028.01 88.801 1027.88 88.7978ZM1034.39 105.641C1023.05 113.948 1006.58 118.37 992.516 118.37C973.543 118.494 955.21 111.577 941.12 98.978C940.062 98.032 940.996 96.7357 942.282 97.4569C957.912 106.322 975.608 110.98 993.614 110.968C1007.06 110.897 1020.36 108.192 1032.75 103.01C1034.66 102.207 1036.28 104.262 1034.39 105.641ZM1039.12 100.294C1037.67 98.4431 1029.52 99.4294 1025.87 99.8614C1024.77 99.9851 1024.58 99.0391 1025.58 98.3403C1032.07 93.8156 1042.73 95.1118 1043.95 96.6329C1045.18 98.154 1043.62 108.745 1037.54 113.805C1036.61 114.587 1035.72 114.174 1036.13 113.146C1037.5 109.733 1040.57 102.145 1039.12 100.294Z" fill="#737373"/>
</g>
</g>
<g clip-path="url(#clip10_1_203)">
<g clip-path="url(#clip11_1_203)">
<path d="M1202.93 79.1614C1200.53 79.1614 1198.42 80.1556 1196.87 81.7111C1191.17 77.7503 1183.49 75.2006 1174.98 74.928L1179.41 54.9156L1193.49 58.0906C1193.49 61.5543 1196.3 64.3766 1199.75 64.3766C1203.26 64.3766 1206.09 61.4741 1206.09 58.0104C1206.09 54.5467 1203.28 51.6443 1199.75 51.6443C1197.29 51.6443 1195.17 53.1356 1194.11 55.1721L1178.56 51.7084C1177.78 51.5 1177.01 52.0612 1176.81 52.847L1171.95 74.912C1163.51 75.2648 1155.91 77.8144 1150.19 81.7752C1148.64 80.1556 1146.45 79.1614 1144.06 79.1614C1135.18 79.1614 1132.27 91.124 1140.4 95.2131C1140.11 96.4799 1139.99 97.8269 1139.99 99.1739C1139.99 112.612 1155.06 123.5 1173.56 123.5C1192.15 123.5 1207.22 112.612 1207.22 99.1739C1207.22 97.8269 1207.08 96.4158 1206.73 95.149C1214.69 91.0438 1211.76 79.1614 1202.93 79.1614ZM1153.29 96.063C1153.29 92.5351 1156.1 89.6968 1159.63 89.6968C1163.07 89.6968 1165.88 92.5191 1165.88 96.063C1165.88 99.5267 1163.07 102.349 1159.63 102.349C1156.11 102.365 1153.29 99.5267 1153.29 96.063ZM1187.5 111.056C1181.69 116.893 1165.29 116.893 1159.48 111.056C1158.84 110.495 1158.84 109.501 1159.48 108.859C1160.04 108.298 1161.03 108.298 1161.59 108.859C1166.03 113.43 1180.75 113.51 1185.38 108.859C1185.94 108.298 1186.93 108.298 1187.49 108.859C1188.14 109.501 1188.14 110.495 1187.5 111.056ZM1187.37 102.365C1183.93 102.365 1181.12 99.5427 1181.12 96.079C1181.12 92.5512 1183.93 89.7129 1187.37 89.7129C1190.89 89.7129 1193.71 92.5351 1193.71 96.079C1193.7 99.5267 1190.89 102.365 1187.37 102.365Z" fill="#737373"/>
</g>
</g>
</g>
<g clip-path="url(#clip12_1_203)">
<rect x="227" y="195" width="986" height="124" rx="2" fill="#16697A"/>
<g clip-path="url(#clip13_1_203)">
<path d="M284.464 236.128C283.84 236.128 283.344 236.28 282.976 236.584C282.624 236.872 282.448 237.264 282.448 237.76C282.448 238.24 282.664 238.624 283.096 238.912C283.544 239.2 284.56 239.544 286.144 239.944C287.744 240.328 288.984 240.912 289.864 241.696C290.744 242.48 291.184 243.624 291.184 245.128C291.184 246.632 290.616 247.856 289.48 248.8C288.36 249.728 286.88 250.192 285.04 250.192C282.384 250.192 279.992 249.208 277.864 247.24L280.096 244.504C281.904 246.088 283.576 246.88 285.112 246.88C285.8 246.88 286.336 246.736 286.72 246.448C287.12 246.144 287.32 245.744 287.32 245.248C287.32 244.736 287.112 244.336 286.696 244.048C286.28 243.744 285.456 243.44 284.224 243.136C282.272 242.672 280.84 242.072 279.928 241.336C279.032 240.584 278.584 239.416 278.584 237.832C278.584 236.232 279.152 235 280.288 234.136C281.44 233.272 282.872 232.84 284.584 232.84C285.704 232.84 286.824 233.032 287.944 233.416C289.064 233.8 290.04 234.344 290.872 235.048L288.976 237.784C287.52 236.68 286.016 236.128 284.464 236.128ZM302.273 244.048V237.088H305.897V250H302.273V248.296C301.377 249.56 300.217 250.192 298.793 250.192C297.385 250.192 296.201 249.752 295.241 248.872C294.281 247.976 293.801 246.656 293.801 244.912V237.088H297.425V244.12C297.425 246.104 298.153 247.096 299.609 247.096C300.329 247.096 300.953 246.84 301.481 246.328C302.009 245.8 302.273 245.04 302.273 244.048ZM316.836 236.872C318.404 236.872 319.772 237.488 320.94 238.72C322.108 239.936 322.692 241.504 322.692 243.424C322.692 245.344 322.092 246.952 320.892 248.248C319.692 249.544 318.324 250.192 316.788 250.192C315.268 250.192 314.004 249.56 312.996 248.296V250H309.396V232.192H312.996V238.528C313.988 237.424 315.268 236.872 316.836 236.872ZM312.948 243.568C312.948 244.608 313.236 245.464 313.812 246.136C314.404 246.792 315.116 247.12 315.948 247.12C316.78 247.12 317.508 246.792 318.132 246.136C318.756 245.464 319.068 244.608 319.068 243.568C319.068 242.528 318.764 241.656 318.156 240.952C317.548 240.248 316.82 239.896 315.972 239.896C315.124 239.896 314.404 240.248 313.812 240.952C313.236 241.64 312.948 242.512 312.948 243.568ZM335.083 245.992C335.083 247.256 334.611 248.272 333.667 249.04C332.739 249.808 331.555 250.192 330.115 250.192C329.155 250.192 328.155 250.024 327.115 249.688C326.075 249.336 325.139 248.824 324.307 248.152L325.891 245.896C327.235 246.936 328.667 247.456 330.187 247.456C330.651 247.456 331.019 247.368 331.291 247.192C331.563 247 331.699 246.752 331.699 246.448C331.699 246.144 331.507 245.864 331.123 245.608C330.755 245.352 330.211 245.112 329.491 244.888C328.787 244.664 328.243 244.472 327.859 244.312C327.491 244.152 327.067 243.92 326.587 243.616C325.611 243.008 325.123 242.112 325.123 240.928C325.123 239.728 325.603 238.752 326.563 238C327.523 237.248 328.763 236.872 330.283 236.872C331.803 236.872 333.323 237.384 334.843 238.408L333.499 240.808C332.379 240.04 331.259 239.656 330.139 239.656C329.035 239.656 328.483 239.96 328.483 240.568C328.483 240.904 328.659 241.168 329.011 241.36C329.363 241.552 329.947 241.776 330.763 242.032C331.579 242.288 332.155 242.488 332.491 242.632C332.843 242.76 333.259 242.968 333.739 243.256C334.635 243.8 335.083 244.712 335.083 245.992ZM344.124 247C345.324 247 346.404 246.4 347.364 245.2L349.5 247.6C347.836 249.328 346.036 250.192 344.1 250.192C342.164 250.192 340.524 249.584 339.18 248.368C337.852 247.136 337.188 245.536 337.188 243.568C337.188 241.584 337.86 239.976 339.204 238.744C340.564 237.496 342.172 236.872 344.028 236.872C344.956 236.872 345.892 237.064 346.836 237.448C347.796 237.832 348.636 238.4 349.356 239.152L347.484 241.6C347.068 241.104 346.556 240.72 345.948 240.448C345.356 240.176 344.764 240.04 344.172 240.04C343.228 240.04 342.412 240.352 341.724 240.976C341.052 241.584 340.716 242.44 340.716 243.544C340.716 244.632 341.052 245.48 341.724 246.088C342.412 246.696 343.212 247 344.124 247ZM358.793 240.256C357.721 240.256 356.921 240.64 356.393 241.408C355.865 242.16 355.601 243.16 355.601 244.408V250H352.001V237.088H355.601V238.792C356.065 238.264 356.641 237.816 357.329 237.448C358.033 237.08 358.745 236.888 359.465 236.872L359.489 240.256H358.793ZM365.568 250H361.968V237.088H365.568V250ZM362.256 235.456C361.856 235.04 361.656 234.536 361.656 233.944C361.656 233.352 361.856 232.856 362.256 232.456C362.672 232.04 363.176 231.832 363.768 231.832C364.36 231.832 364.856 232.04 365.256 232.456C365.672 232.856 365.88 233.352 365.88 233.944C365.88 234.536 365.672 235.04 365.256 235.456C364.856 235.856 364.36 236.056 363.768 236.056C363.176 236.056 362.672 235.856 362.256 235.456ZM376.516 236.872C378.084 236.872 379.452 237.488 380.62 238.72C381.788 239.936 382.372 241.504 382.372 243.424C382.372 245.344 381.772 246.952 380.572 248.248C379.372 249.544 378.004 250.192 376.468 250.192C374.948 250.192 373.684 249.56 372.676 248.296V250H369.076V232.192H372.676V238.528C373.668 237.424 374.948 236.872 376.516 236.872ZM372.628 243.568C372.628 244.608 372.916 245.464 373.492 246.136C374.084 246.792 374.796 247.12 375.628 247.12C376.46 247.12 377.188 246.792 377.812 246.136C378.436 245.464 378.748 244.608 378.748 243.568C378.748 242.528 378.444 241.656 377.836 240.952C377.228 240.248 376.5 239.896 375.652 239.896C374.804 239.896 374.084 240.248 373.492 240.952C372.916 241.64 372.628 242.512 372.628 243.568ZM396.344 248.128C394.888 249.504 393.176 250.192 391.208 250.192C389.256 250.192 387.64 249.592 386.36 248.392C385.08 247.176 384.44 245.552 384.44 243.52C384.44 241.488 385.088 239.872 386.384 238.672C387.696 237.472 389.24 236.872 391.016 236.872C392.792 236.872 394.296 237.408 395.528 238.48C396.776 239.552 397.4 241.024 397.4 242.896V244.816H387.992C388.104 245.52 388.472 246.096 389.096 246.544C389.72 246.992 390.424 247.216 391.208 247.216C392.472 247.216 393.512 246.792 394.328 245.944L396.344 248.128ZM393.752 242.248C393.672 241.48 393.384 240.888 392.888 240.472C392.392 240.056 391.784 239.848 391.064 239.848C390.36 239.848 389.712 240.064 389.12 240.496C388.528 240.928 388.184 241.512 388.088 242.248H393.752ZM418.404 233.224V236.512H410.628V240.136H418.02V243.424H410.628V250H406.884V233.224H418.404ZM423.942 243.544C423.942 244.6 424.238 245.464 424.83 246.136C425.438 246.792 426.206 247.12 427.134 247.12C428.078 247.12 428.846 246.792 429.438 246.136C430.046 245.464 430.35 244.6 430.35 243.544C430.35 242.488 430.046 241.624 429.438 240.952C428.846 240.28 428.078 239.944 427.134 239.944C426.206 239.944 425.438 240.28 424.83 240.952C424.238 241.624 423.942 242.488 423.942 243.544ZM433.974 243.544C433.974 245.416 433.326 246.992 432.03 248.272C430.734 249.552 429.102 250.192 427.134 250.192C425.182 250.192 423.558 249.552 422.262 248.272C420.966 246.992 420.318 245.416 420.318 243.544C420.318 241.672 420.966 240.096 422.262 238.816C423.558 237.52 425.182 236.872 427.134 236.872C429.102 236.872 430.734 237.52 432.03 238.816C433.326 240.096 433.974 241.672 433.974 243.544ZM443.54 240.256C442.468 240.256 441.668 240.64 441.14 241.408C440.612 242.16 440.348 243.16 440.348 244.408V250H436.748V237.088H440.348V238.792C440.812 238.264 441.388 237.816 442.076 237.448C442.78 237.08 443.492 236.888 444.212 236.872L444.236 240.256H443.54ZM453.503 250V233.224H457.247V246.664H464.399V250H453.503ZM477.852 250H474.468V248.44C473.54 249.608 472.388 250.192 471.012 250.192C469.652 250.192 468.508 249.8 467.58 249.016C466.652 248.216 466.188 247.16 466.188 245.848C466.188 244.52 466.668 243.528 467.628 242.872C468.588 242.216 469.9 241.888 471.564 241.888H474.252V241.816C474.252 240.44 473.524 239.752 472.068 239.752C471.444 239.752 470.78 239.88 470.076 240.136C469.388 240.376 468.804 240.68 468.324 241.048L466.716 238.72C468.412 237.488 470.348 236.872 472.524 236.872C474.092 236.872 475.372 237.264 476.364 238.048C477.356 238.832 477.852 240.072 477.852 241.768V250ZM474.228 245.08V244.456H471.972C470.532 244.456 469.812 244.904 469.812 245.8C469.812 246.264 469.98 246.624 470.316 246.88C470.668 247.12 471.164 247.24 471.804 247.24C472.444 247.24 473.004 247.048 473.484 246.664C473.98 246.264 474.228 245.736 474.228 245.08ZM485.389 239.68V245.464C485.389 245.96 485.517 246.352 485.773 246.64C486.029 246.912 486.333 247.048 486.685 247.048C487.357 247.048 487.925 246.744 488.389 246.136L489.733 248.656C488.613 249.68 487.429 250.192 486.181 250.192C484.949 250.192 483.901 249.784 483.037 248.968C482.189 248.152 481.765 247.04 481.765 245.632V239.68H480.253V237.088H481.765V233.224H485.389V237.088H488.509V239.68H485.389ZM502.947 248.128C501.491 249.504 499.779 250.192 497.811 250.192C495.859 250.192 494.243 249.592 492.963 248.392C491.683 247.176 491.043 245.552 491.043 243.52C491.043 241.488 491.691 239.872 492.987 238.672C494.299 237.472 495.843 236.872 497.619 236.872C499.395 236.872 500.899 237.408 502.131 238.48C503.379 239.552 504.003 241.024 504.003 242.896V244.816H494.595C494.707 245.52 495.075 246.096 495.699 246.544C496.323 246.992 497.027 247.216 497.811 247.216C499.075 247.216 500.115 246.792 500.931 245.944L502.947 248.128ZM500.355 242.248C500.275 241.48 499.987 240.888 499.491 240.472C498.995 240.056 498.387 239.848 497.667 239.848C496.963 239.848 496.315 240.064 495.723 240.496C495.131 240.928 494.787 241.512 494.691 242.248H500.355ZM516.419 245.992C516.419 247.256 515.947 248.272 515.003 249.04C514.075 249.808 512.891 250.192 511.451 250.192C510.491 250.192 509.491 250.024 508.451 249.688C507.411 249.336 506.475 248.824 505.643 248.152L507.227 245.896C508.571 246.936 510.003 247.456 511.523 247.456C511.987 247.456 512.355 247.368 512.627 247.192C512.899 247 513.035 246.752 513.035 246.448C513.035 246.144 512.843 245.864 512.459 245.608C512.091 245.352 511.547 245.112 510.827 244.888C510.123 244.664 509.579 244.472 509.195 244.312C508.827 244.152 508.403 243.92 507.923 243.616C506.947 243.008 506.459 242.112 506.459 240.928C506.459 239.728 506.939 238.752 507.899 238C508.859 237.248 510.099 236.872 511.619 236.872C513.139 236.872 514.659 237.384 516.179 238.408L514.835 240.808C513.715 240.04 512.595 239.656 511.475 239.656C510.371 239.656 509.819 239.96 509.819 240.568C509.819 240.904 509.995 241.168 510.347 241.36C510.699 241.552 511.283 241.776 512.099 242.032C512.915 242.288 513.491 242.488 513.827 242.632C514.179 242.76 514.595 242.968 515.075 243.256C515.971 243.8 516.419 244.712 516.419 245.992ZM523.47 239.68V245.464C523.47 245.96 523.598 246.352 523.854 246.64C524.11 246.912 524.414 247.048 524.766 247.048C525.438 247.048 526.006 246.744 526.47 246.136L527.814 248.656C526.694 249.68 525.51 250.192 524.262 250.192C523.03 250.192 521.982 249.784 521.118 248.968C520.27 248.152 519.846 247.04 519.846 245.632V239.68H518.334V237.088H519.846V233.224H523.47V237.088H526.59V239.68H523.47ZM290.8 265.224H294.544V282H290.8L282.808 271.488V282H279.064V265.224H282.568L290.8 276.024V265.224ZM309.605 280.128C308.149 281.504 306.437 282.192 304.469 282.192C302.517 282.192 300.901 281.592 299.621 280.392C298.341 279.176 297.701 277.552 297.701 275.52C297.701 273.488 298.349 271.872 299.645 270.672C300.957 269.472 302.501 268.872 304.277 268.872C306.053 268.872 307.557 269.408 308.789 270.48C310.037 271.552 310.661 273.024 310.661 274.896V276.816H301.253C301.365 277.52 301.733 278.096 302.357 278.544C302.981 278.992 303.685 279.216 304.469 279.216C305.733 279.216 306.773 278.792 307.589 277.944L309.605 280.128ZM307.013 274.248C306.933 273.48 306.645 272.888 306.149 272.472C305.653 272.056 305.045 271.848 304.325 271.848C303.621 271.848 302.973 272.064 302.381 272.496C301.789 272.928 301.445 273.512 301.349 274.248H307.013ZM319.96 282H316.24L311.848 269.088H315.568L318.088 276.888L320.608 269.088H324.088L326.608 276.888L329.128 269.088H332.872L328.48 282H324.736L322.36 274.968L319.96 282ZM344.529 277.992C344.529 279.256 344.057 280.272 343.113 281.04C342.185 281.808 341.001 282.192 339.561 282.192C338.601 282.192 337.601 282.024 336.561 281.688C335.521 281.336 334.585 280.824 333.753 280.152L335.337 277.896C336.681 278.936 338.113 279.456 339.633 279.456C340.097 279.456 340.465 279.368 340.737 279.192C341.009 279 341.145 278.752 341.145 278.448C341.145 278.144 340.953 277.864 340.569 277.608C340.201 277.352 339.657 277.112 338.937 276.888C338.233 276.664 337.689 276.472 337.305 276.312C336.937 276.152 336.513 275.92 336.033 275.616C335.057 275.008 334.569 274.112 334.569 272.928C334.569 271.728 335.049 270.752 336.009 270C336.969 269.248 338.209 268.872 339.729 268.872C341.249 268.872 342.769 269.384 344.289 270.408L342.945 272.808C341.825 272.04 340.705 271.656 339.585 271.656C338.481 271.656 337.929 271.96 337.929 272.568C337.929 272.904 338.105 273.168 338.457 273.36C338.809 273.552 339.393 273.776 340.209 274.032C341.025 274.288 341.601 274.488 341.937 274.632C342.289 274.76 342.705 274.968 343.185 275.256C344.081 275.8 344.529 276.712 344.529 277.992ZM350.977 282H347.377V264.192H350.977V282ZM365.669 280.128C364.213 281.504 362.501 282.192 360.533 282.192C358.581 282.192 356.965 281.592 355.685 280.392C354.405 279.176 353.765 277.552 353.765 275.52C353.765 273.488 354.413 271.872 355.709 270.672C357.021 269.472 358.565 268.872 360.341 268.872C362.117 268.872 363.621 269.408 364.853 270.48C366.101 271.552 366.725 273.024 366.725 274.896V276.816H357.317C357.429 277.52 357.797 278.096 358.421 278.544C359.045 278.992 359.749 279.216 360.533 279.216C361.797 279.216 362.837 278.792 363.653 277.944L365.669 280.128ZM363.077 274.248C362.997 273.48 362.709 272.888 362.213 272.472C361.717 272.056 361.109 271.848 360.389 271.848C359.685 271.848 359.037 272.064 358.445 272.496C357.853 272.928 357.509 273.512 357.413 274.248H363.077ZM373.577 271.68V277.464C373.577 277.96 373.705 278.352 373.961 278.64C374.217 278.912 374.521 279.048 374.873 279.048C375.545 279.048 376.113 278.744 376.577 278.136L377.921 280.656C376.801 281.68 375.617 282.192 374.369 282.192C373.137 282.192 372.089 281.784 371.225 280.968C370.377 280.152 369.953 279.04 369.953 277.632V271.68H368.441V269.088H369.953V265.224H373.577V269.088H376.697V271.68H373.577ZM384.247 271.68V277.464C384.247 277.96 384.375 278.352 384.631 278.64C384.887 278.912 385.191 279.048 385.543 279.048C386.215 279.048 386.783 278.744 387.247 278.136L388.591 280.656C387.471 281.68 386.287 282.192 385.039 282.192C383.807 282.192 382.759 281.784 381.895 280.968C381.047 280.152 380.623 279.04 380.623 277.632V271.68H379.111V269.088H380.623V265.224H384.247V269.088H387.367V271.68H384.247ZM401.805 280.128C400.349 281.504 398.637 282.192 396.669 282.192C394.717 282.192 393.101 281.592 391.821 280.392C390.541 279.176 389.901 277.552 389.901 275.52C389.901 273.488 390.549 271.872 391.845 270.672C393.157 269.472 394.701 268.872 396.477 268.872C398.253 268.872 399.757 269.408 400.989 270.48C402.237 271.552 402.861 273.024 402.861 274.896V276.816H393.453C393.565 277.52 393.933 278.096 394.557 278.544C395.181 278.992 395.885 279.216 396.669 279.216C397.933 279.216 398.973 278.792 399.789 277.944L401.805 280.128ZM399.213 274.248C399.133 273.48 398.845 272.888 398.349 272.472C397.853 272.056 397.245 271.848 396.525 271.848C395.821 271.848 395.173 272.064 394.581 272.496C393.989 272.928 393.645 273.512 393.549 274.248H399.213ZM412.349 272.256C411.277 272.256 410.477 272.64 409.949 273.408C409.421 274.16 409.157 275.16 409.157 276.408V282H405.557V269.088H409.157V270.792C409.621 270.264 410.197 269.816 410.885 269.448C411.589 269.08 412.301 268.888 413.021 268.872L413.045 272.256H412.349Z" fill="white"/>
<g clip-path="url(#clip14_1_203)">
<rect x="715.5" y="228.5" width="449" height="57" rx="4.5" fill="#F9F9F9"/>
<path d="M743.876 252.2H742.84L739.48 257.702L736.12 252.2H735.014L738.934 258.612V262H739.956V258.612L743.876 252.2ZM747.649 262.07C749.805 262.07 751.387 260.502 751.387 258.318C751.387 256.134 749.805 254.58 747.649 254.58C745.493 254.58 743.897 256.134 743.897 258.318C743.897 260.502 745.493 262.07 747.649 262.07ZM747.649 261.188C746.081 261.188 744.905 260.04 744.905 258.318C744.905 256.596 746.081 255.448 747.649 255.448C749.217 255.448 750.379 256.596 750.379 258.318C750.379 260.04 749.217 261.188 747.649 261.188ZM759.258 254.636V258.5C759.258 260.18 758.292 261.174 756.752 261.174C755.352 261.174 754.54 260.376 754.54 258.808V254.636H753.546V258.906C753.546 261.02 754.778 262.07 756.654 262.07C757.83 262.07 758.782 261.552 759.3 260.656V262H760.252V254.636H759.258ZM764.188 256.078V254.636H763.236V262H764.23V258.248C764.23 256.512 765.168 255.532 766.708 255.532C766.778 255.532 766.862 255.546 766.946 255.546V254.58C765.588 254.58 764.65 255.098 764.188 256.078ZM774.165 261.104V257.464H779.233V256.582H774.165V253.096H779.849V252.2H773.129V262H780.059V261.104H774.165ZM791.668 254.58C790.338 254.58 789.288 255.182 788.756 256.134C788.308 255.098 787.356 254.58 786.138 254.58C784.906 254.58 783.954 255.098 783.436 255.98V254.636H782.484V262H783.478V258.136C783.478 256.456 784.444 255.476 785.942 255.476C787.286 255.476 788.07 256.274 788.07 257.828V262H789.064V258.136C789.064 256.456 790.016 255.476 791.528 255.476C792.858 255.476 793.642 256.274 793.642 257.828V262H794.636V257.73C794.636 255.616 793.46 254.58 791.668 254.58ZM800.108 254.58C798.946 254.58 797.854 254.944 797.112 255.574L797.56 256.316C798.162 255.784 799.058 255.448 800.01 255.448C801.382 255.448 802.096 256.134 802.096 257.394V257.842H799.758C797.644 257.842 796.916 258.794 796.916 259.928C796.916 261.202 797.938 262.07 799.604 262.07C800.822 262.07 801.69 261.608 802.138 260.852V262H803.09V257.436C803.09 255.532 802.012 254.58 800.108 254.58ZM799.758 261.286C798.582 261.286 797.896 260.754 797.896 259.9C797.896 259.144 798.358 258.584 799.786 258.584H802.096V259.788C801.704 260.754 800.878 261.286 799.758 261.286ZM806.494 253.026C806.914 253.026 807.222 252.704 807.222 252.298C807.222 251.92 806.9 251.612 806.494 251.612C806.088 251.612 805.766 251.934 805.766 252.312C805.766 252.704 806.088 253.026 806.494 253.026ZM805.99 262H806.984V254.636H805.99V262ZM809.95 262H810.944V251.612H809.95V262Z" fill="#737373"/>
<rect x="715.5" y="228.5" width="449" height="57" rx="4.5" stroke="#E6E6E6"/>
<g clip-path="url(#clip15_1_203)">
<path d="M1048.5 228.5H1160C1162.49 228.5 1164.5 230.515 1164.5 233V281C1164.5 283.485 1162.49 285.5 1160 285.5H1048.5V228.5Z" fill="#FFA62B"/>
<path d="M1075.26 262.084C1077.77 262.084 1078.92 260.852 1078.92 259.41C1078.92 255.84 1072.88 257.464 1072.88 254.776C1072.88 253.796 1073.68 252.998 1075.47 252.998C1076.34 252.998 1077.32 253.264 1078.16 253.81L1078.51 252.984C1077.73 252.438 1076.58 252.116 1075.47 252.116C1072.98 252.116 1071.86 253.362 1071.86 254.804C1071.86 258.43 1077.9 256.778 1077.9 259.466C1077.9 260.432 1077.1 261.202 1075.26 261.202C1073.98 261.202 1072.73 260.698 1072.03 260.012L1071.62 260.81C1072.35 261.566 1073.79 262.084 1075.26 262.084ZM1086.81 254.636V258.5C1086.81 260.18 1085.84 261.174 1084.3 261.174C1082.9 261.174 1082.09 260.376 1082.09 258.808V254.636H1081.1V258.906C1081.1 261.02 1082.33 262.07 1084.2 262.07C1085.38 262.07 1086.33 261.552 1086.85 260.656V262H1087.8V254.636H1086.81ZM1094.58 254.58C1093.4 254.58 1092.4 255.084 1091.78 256.036V251.612H1090.79V262H1091.74V260.544C1092.34 261.538 1093.36 262.07 1094.58 262.07C1096.68 262.07 1098.25 260.544 1098.25 258.318C1098.25 256.092 1096.68 254.58 1094.58 254.58ZM1094.51 261.188C1092.94 261.188 1091.77 260.04 1091.77 258.318C1091.77 256.596 1092.94 255.448 1094.51 255.448C1096.06 255.448 1097.25 256.596 1097.25 258.318C1097.25 260.04 1096.06 261.188 1094.51 261.188ZM1102.45 262.07C1104.37 262.07 1105.49 261.244 1105.49 259.97C1105.49 257.142 1100.71 258.64 1100.71 256.652C1100.71 255.952 1101.3 255.434 1102.63 255.434C1103.39 255.434 1104.16 255.616 1104.8 256.064L1105.23 255.266C1104.62 254.846 1103.58 254.58 1102.63 254.58C1100.75 254.58 1099.72 255.476 1099.72 256.68C1099.72 259.592 1104.49 258.08 1104.49 259.998C1104.49 260.726 1103.92 261.202 1102.52 261.202C1101.48 261.202 1100.49 260.838 1099.9 260.376L1099.45 261.16C1100.05 261.678 1101.23 262.07 1102.45 262.07ZM1110.58 262.07C1111.82 262.07 1112.87 261.566 1113.46 260.614L1112.72 260.11C1112.21 260.852 1111.43 261.188 1110.58 261.188C1108.97 261.188 1107.79 260.054 1107.79 258.318C1107.79 256.596 1108.97 255.448 1110.58 255.448C1111.43 255.448 1112.21 255.798 1112.72 256.54L1113.46 256.036C1112.87 255.07 1111.82 254.58 1110.58 254.58C1108.38 254.58 1106.78 256.12 1106.78 258.318C1106.78 260.516 1108.38 262.07 1110.58 262.07ZM1116.56 256.078V254.636H1115.61V262H1116.61V258.248C1116.61 256.512 1117.54 255.532 1119.08 255.532C1119.15 255.532 1119.24 255.546 1119.32 255.546V254.58C1117.96 254.58 1117.03 255.098 1116.56 256.078ZM1121.83 253.026C1122.25 253.026 1122.55 252.704 1122.55 252.298C1122.55 251.92 1122.23 251.612 1121.83 251.612C1121.42 251.612 1121.1 251.934 1121.1 252.312C1121.1 252.704 1121.42 253.026 1121.83 253.026ZM1121.32 262H1122.32V254.636H1121.32V262ZM1129.08 254.58C1127.9 254.58 1126.89 255.084 1126.28 256.036V251.612H1125.28V262H1126.23V260.544C1126.84 261.538 1127.86 262.07 1129.08 262.07C1131.18 262.07 1132.74 260.544 1132.74 258.318C1132.74 256.092 1131.18 254.58 1129.08 254.58ZM1129.01 261.188C1127.44 261.188 1126.26 260.04 1126.26 258.318C1126.26 256.596 1127.44 255.448 1129.01 255.448C1130.56 255.448 1131.75 256.596 1131.75 258.318C1131.75 260.04 1130.56 261.188 1129.01 261.188ZM1141.4 258.318C1141.4 256.106 1139.9 254.58 1137.83 254.58C1135.75 254.58 1134.23 256.134 1134.23 258.318C1134.23 260.502 1135.8 262.07 1138.09 262.07C1139.25 262.07 1140.28 261.65 1140.93 260.866L1140.37 260.222C1139.81 260.866 1139.02 261.188 1138.12 261.188C1136.51 261.188 1135.33 260.166 1135.22 258.626H1141.38C1141.38 258.514 1141.4 258.402 1141.4 258.318ZM1137.83 255.434C1139.27 255.434 1140.32 256.442 1140.44 257.884H1135.22C1135.35 256.442 1136.4 255.434 1137.83 255.434Z" fill="white"/>
<path d="M1048.5 228.5H1160C1162.49 228.5 1164.5 230.515 1164.5 233V281C1164.5 283.485 1162.49 285.5 1160 285.5H1048.5V228.5Z" stroke="#E6E6E6"/>
</g>
</g>
</g>
</g>
</g>
<defs>
<clipPath id="clip0_1_203">
<rect width="1440" height="339" fill="white"/>
</clipPath>
<clipPath id="clip1_1_203">
<rect width="1050" height="175" fill="white" transform="translate(195)"/>
</clipPath>
<clipPath id="clip2_1_203">
<rect width="153" height="34" fill="white" transform="translate(195 70.5)"/>
</clipPath>
<clipPath id="clip3_1_203">
<rect width="103" height="34" fill="white" transform="translate(220 70.5)"/>
</clipPath>
<clipPath id="clip4_1_203">
<rect width="83" height="59" fill="white" transform="translate(409.5 58)"/>
</clipPath>
<clipPath id="clip5_1_203">
<rect width="102" height="75" fill="white" transform="translate(579 50)"/>
</clipPath>
<clipPath id="clip6_1_203">
<rect width="151" height="42" fill="white" transform="translate(736 66.5)"/>
</clipPath>
<clipPath id="clip7_1_203">
<rect width="103" height="42" fill="white" transform="translate(760 66.5)"/>
</clipPath>
<clipPath id="clip8_1_203">
<rect width="151" height="62" fill="white" transform="translate(917 56.5)"/>
</clipPath>
<clipPath id="clip9_1_203">
<rect width="104" height="62" fill="white" transform="translate(940.5 56.5)"/>
</clipPath>
<clipPath id="clip10_1_203">
<rect width="151" height="72" fill="white" transform="translate(1098 51.5)"/>
</clipPath>
<clipPath id="clip11_1_203">
<rect width="76" height="72" fill="white" transform="translate(1135.5 51.5)"/>
</clipPath>
<clipPath id="clip12_1_203">
<rect width="986" height="124" fill="white" transform="translate(227 195)"/>
</clipPath>
<clipPath id="clip13_1_203">
<rect width="888" height="64" fill="white" transform="translate(277 225)"/>
</clipPath>
<clipPath id="clip14_1_203">
<rect width="450" height="58" fill="white" transform="translate(715 228)"/>
</clipPath>
<clipPath id="clip15_1_203">
<rect width="117" height="58" fill="white" transform="translate(1048 228)"/>
</clipPath>
</defs>
</svg>
